<svg xmlns="http://www.w3.org/2000/svg" xmlns:svgjs="http://svgjs.com/svgjs" xmlns:xlink="http://www.w3.org/1999/xlink" width="288" height="288"><svg xmlns="http://www.w3.org/2000/svg" width="288" height="288" enable-background="new 0 0 245.667 245.667" viewBox="0 0 245.667 245.667"><path fill="#a5b1bb" d="M122.833,0C84.677,0,53.635,31.042,53.635,69.198c0,27.932,16.695,52.866,42.067,63.658v97.949
	c0,3.126,1.939,5.925,4.867,7.022l19.631,7.362c0.849,0.318,1.741,0.478,2.633,0.478s1.785-0.159,2.633-0.478l19.631-7.362
	c2.927-1.098,4.867-3.896,4.867-7.022v-10.867c0-1.989-0.79-3.897-2.197-5.303l-10.122-10.121l10.122-10.122
	c1.407-1.406,2.197-3.314,2.197-5.303v-8.413c0-1.989-0.79-3.897-2.197-5.303l-10.122-10.122l10.122-10.121
	c1.407-1.406,2.197-3.314,2.197-5.303v-16.97c25.372-10.792,42.067-35.726,42.067-63.658C192.031,31.042,160.99,0,122.833,0z
	 M122.833,60.997c-9.782,0-17.74-7.958-17.74-17.74c0-9.782,7.958-17.74,17.74-17.74s17.74,7.958,17.74,17.74
	C140.573,53.039,132.615,60.997,122.833,60.997z" class="color000 svgShape"/></svg></svg>