<svg xmlns="http://www.w3.org/2000/svg" xmlns:svgjs="http://svgjs.com/svgjs" xmlns:xlink="http://www.w3.org/1999/xlink" width="288" height="288"><svg xmlns="http://www.w3.org/2000/svg" width="288" height="288" viewBox="0 0 512 512"><rect width="80" height="80" x="336" y="336" fill="#00c39c" class="color000 svgShape" rx="8" ry="8"/><rect width="64" height="64" x="272" y="272" fill="#00c39c" class="color000 svgShape" rx="8" ry="8"/><rect width="64" height="64" x="416" y="416" fill="#00c39c" class="color000 svgShape" rx="8" ry="8"/><rect width="48" height="48" x="432" y="272" fill="#00c39c" class="color000 svgShape" rx="8" ry="8"/><rect width="48" height="48" x="272" y="432" fill="#00c39c" class="color000 svgShape" rx="8" ry="8"/><path fill="#00c39c" d="M448 32H304a32 32 0 00-32 32V208a32 32 0 0032 32H448a32 32 0 0032-32V64A32 32 0 00448 32zM416 168a8 8 0 01-8 8H344a8 8 0 01-8-8V104a8 8 0 018-8h64a8 8 0 018 8zM208 32H64A32 32 0 0032 64V208a32 32 0 0032 32H208a32 32 0 0032-32V64A32 32 0 00208 32zM176 168a8 8 0 01-8 8H104a8 8 0 01-8-8V104a8 8 0 018-8h64a8 8 0 018 8zM208 272H64a32 32 0 00-32 32V448a32 32 0 0032 32H208a32 32 0 0032-32V304A32 32 0 00208 272zM176 408a8 8 0 01-8 8H104a8 8 0 01-8-8V344a8 8 0 018-8h64a8 8 0 018 8z" class="color000 svgShape"/></svg></svg>